<svg width="41" height="41" viewBox="0 0 41 41" fill="none" xmlns="http://www.w3.org/2000/svg">
<g clip-path="url(#clip0)">
<g filter="url(#filter0_dd)">
<path d="M8.70557 13.912C7.79411 13.912 6.93962 14.0813 6.14209 14.4198C5.34456 14.7584 4.64388 15.2154 4.04004 15.7909C3.4362 16.3665 2.96338 17.0548 2.62158 17.856C2.27979 18.6573 2.10319 19.5093 2.0918 20.412C2.0918 21.3148 2.2627 22.1555 2.60449 22.9342C2.94629 23.7128 3.41341 24.4012 4.00586 24.9993C4.59831 25.5974 5.29899 26.0657 6.10791 26.4042C6.91683 26.7428 7.76562 26.912 8.6543 26.912H28.3418C29.5495 26.912 30.6831 26.6863 31.7427 26.2349C32.8022 25.7836 33.7308 25.1685 34.5283 24.3899C35.3258 23.6112 35.9525 22.6915 36.4082 21.6308C36.8639 20.57 37.0918 19.4415 37.0918 18.2454C37.0918 17.0492 36.8639 15.9264 36.4082 14.8769C35.9525 13.8274 35.3315 12.9077 34.5454 12.1178C33.7593 11.3278 32.8307 10.7072 31.7598 10.2558C30.6888 9.80439 29.5495 9.57869 28.3418 9.57869C27.8177 9.57869 27.2879 9.62948 26.7524 9.73104C26.2967 9.03139 25.7726 8.40508 25.1802 7.85213C24.5877 7.29918 23.9326 6.82522 23.2148 6.43026C22.4971 6.03529 21.7451 5.74189 20.959 5.55005C20.1729 5.35821 19.3525 5.25665 18.498 5.24536C17.2334 5.24536 16.0428 5.46541 14.9263 5.90552C13.8097 6.34562 12.8128 6.94935 11.9355 7.71672C11.0583 8.48408 10.3462 9.40378 9.79932 10.4758C9.25244 11.5479 8.88786 12.6933 8.70557 13.912Z" fill="url(#paint0_linear)"/>
</g>
<path d="M36.9719 17.495C36.9719 21.4066 32.8049 23.8 28.6792 23.8C24.5535 23.8 21.209 20.6291 21.209 16.7175C21.209 12.806 24.5535 9.63501 28.6792 9.63501C32.8049 9.63501 36.9719 13.5834 36.9719 17.495Z" fill="url(#paint1_linear)"/>
<path d="M26.2178 12.1136C24.5124 12.1136 22.9924 12.7122 21.8061 13.663C21.8061 13.663 21.769 13.663 21.769 13.6982C22.4734 12.2896 23.6968 11.1276 25.1797 10.4585C23.9193 9.08523 22.1027 8.24011 20.0265 8.24011C16.2821 8.24011 13.2792 11.1276 13.2792 14.6137C13.2792 15.1771 13.3533 15.7405 13.5016 16.2687C12.9826 16.0927 12.4265 15.987 11.8333 15.987C9.23818 15.987 7.125 17.9942 7.125 20.4239C7.125 22.8536 9.23818 24.8608 11.8333 24.8608C11.8704 24.8608 11.9075 24.8608 11.9075 24.8608H26.0695C26.1066 24.8608 26.1437 24.8608 26.1807 24.8608C29.9251 24.8608 32.9281 21.9733 32.9281 18.4872C32.9281 15.0011 29.9251 12.1136 26.2178 12.1136Z" fill="url(#paint2_linear)"/>
<path d="M27.7414 24.2114L25.1263 29.3056C24.9891 29.6365 24.9082 29.9977 24.9082 30.377C24.9082 30.7564 24.9891 31.1176 25.1263 31.4485C25.2709 31.7903 25.478 32.1006 25.7378 32.3587C25.9988 32.6169 26.3125 32.8205 26.6581 32.9635C26.9926 33.1005 27.3578 33.1793 27.7414 33.1793C28.1261 33.1793 28.4913 33.1005 28.8246 32.9635C29.1714 32.8205 29.4839 32.6169 29.7449 32.3587C30.0059 32.1006 30.213 31.7903 30.3564 31.4485C30.4949 31.1176 30.5745 30.7564 30.5745 30.377C30.5745 29.9977 30.4949 29.6365 30.3564 29.3056L27.7414 24.2114Z" fill="#A4D4FF"/>
<path d="M28.2269 25.1477L25.8991 29.6991C25.7758 29.9964 25.7031 30.3209 25.7031 30.6618C25.7031 31.0026 25.7758 31.3272 25.8991 31.6245C26.029 31.9316 26.2151 32.2104 26.4485 32.4423C26.6831 32.6743 26.9649 32.8572 27.2754 32.9858C27.576 33.1088 27.9041 33.1796 28.2488 33.1796C28.5945 33.1796 28.9226 33.1088 29.2221 32.9858C29.5337 32.8572 29.8144 32.6743 30.049 32.4423C30.2835 32.2104 30.4696 31.9316 30.5984 31.6245C30.7228 31.3272 30.7944 31.0026 30.7944 30.6618C30.7944 30.3209 30.7228 29.9964 30.5984 29.6991L28.2269 25.1477Z" fill="url(#paint3_linear)"/>
<path d="M19.255 19.9451L16.64 25.0393C16.5028 25.3701 16.4219 25.7313 16.4219 26.1107C16.4219 26.4901 16.5028 26.8512 16.64 27.1821C16.7846 27.5239 16.9917 27.8342 17.2515 28.0924C17.5125 28.3505 17.8262 28.5542 18.1718 28.6972C18.5063 28.8341 18.8715 28.9129 19.255 28.9129C19.6398 28.9129 20.005 28.8341 20.3383 28.6972C20.6851 28.5542 20.9976 28.3505 21.2586 28.0924C21.5196 27.8342 21.7267 27.5239 21.8701 27.1821C22.0085 26.8512 22.0882 26.4901 22.0882 26.1107C22.0882 25.7313 22.0085 25.3701 21.8701 25.0393L19.255 19.9451Z" fill="#A4D4FF"/>
<path d="M19.739 20.8813L17.4128 25.4326C17.2895 25.7299 17.2168 26.0545 17.2168 26.3953C17.2168 26.7362 17.2895 27.0607 17.4128 27.358C17.5427 27.6651 17.7288 27.9439 17.9622 28.1759C18.1967 28.4078 18.4786 28.5908 18.7891 28.7193C19.0897 28.8424 19.4178 28.9132 19.7624 28.9132C20.1082 28.9132 20.4363 28.8424 20.7357 28.7193C21.0473 28.5908 21.3281 28.4078 21.5626 28.1759C21.7972 27.9439 21.9832 27.6651 22.1121 27.358C22.2365 27.0607 22.308 26.7362 22.308 26.3953C22.308 26.0545 22.2365 25.7299 22.1121 25.4326L19.739 20.8813Z" fill="url(#paint4_linear)"/>
<path d="M11.921 28.4769L9.30601 33.5711C9.16877 33.902 9.08789 34.2632 9.08789 34.6425C9.08789 35.0219 9.16877 35.3831 9.30601 35.714C9.45061 36.0558 9.65771 36.3661 9.9175 36.6242C10.1785 36.8824 10.4922 37.086 10.8378 37.229C11.1723 37.366 11.5375 37.4448 11.921 37.4448C12.3058 37.4448 12.671 37.366 13.0043 37.229C13.3511 37.086 13.6636 36.8824 13.9246 36.6242C14.1856 36.3661 14.3927 36.0558 14.5361 35.714C14.6745 35.3831 14.7542 35.0219 14.7542 34.6425C14.7542 34.2632 14.6745 33.902 14.5361 33.5711L11.921 28.4769Z" fill="#A4D4FF"/>
<path d="M12.4011 29.4128L10.0749 33.9641C9.95158 34.2614 9.87891 34.5859 9.87891 34.9268C9.87891 35.2677 9.95158 35.5922 10.0749 35.8895C10.2048 36.1966 10.3909 36.4754 10.6243 36.7074C10.8588 36.9393 11.1407 37.1223 11.4512 37.2508C11.7518 37.3739 12.0799 37.4446 12.4245 37.4446C12.7703 37.4446 13.0984 37.3739 13.3979 37.2508C13.7095 37.1223 13.9902 36.9393 14.2247 36.7074C14.4593 36.4754 14.6453 36.1966 14.7742 35.8895C14.8986 35.5922 14.9702 35.2677 14.9702 34.9268C14.9702 34.5859 14.8986 34.2614 14.7742 33.9641L12.4011 29.4128Z" fill="url(#paint5_linear)"/>
</g>
<defs>
<filter id="filter0_dd" x="0.0917969" y="3.24536" width="39" height="25.6667" filterUnits="userSpaceOnUse" color-interpolation-filters="sRGB">
<feFlood flood-opacity="0" result="BackgroundImageFix"/>
<feColorMatrix in="SourceAlpha" type="matrix" values="0 0 0 0 0 0 0 0 0 0 0 0 0 0 0 0 0 0 127 0" result="hardAlpha"/>
<feOffset/>
<feGaussianBlur stdDeviation="1"/>
<feColorMatrix type="matrix" values="0 0 0 0 0 0 0 0 0 0 0 0 0 0 0 0 0 0 0.2 0"/>
<feBlend mode="normal" in2="BackgroundImageFix" result="effect1_dropShadow"/>
<feColorMatrix in="SourceAlpha" type="matrix" values="0 0 0 0 0 0 0 0 0 0 0 0 0 0 0 0 0 0 127 0" result="hardAlpha"/>
<feOffset dx="0.5" dy="1"/>
<feGaussianBlur stdDeviation="0.5"/>
<feColorMatrix type="matrix" values="0 0 0 0 0 0 0 0 0 0 0 0 0 0 0 0 0 0 0.15 0"/>
<feBlend mode="normal" in2="effect1_dropShadow" result="effect2_dropShadow"/>
<feBlend mode="normal" in="SourceGraphic" in2="effect2_dropShadow" result="shape"/>
</filter>
<linearGradient id="paint0_linear" x1="6.94746" y1="8.72272" x2="36.1343" y2="27.1631" gradientUnits="userSpaceOnUse">
<stop stop-color="white"/>
<stop offset="0.551728" stop-color="#D9E7EF"/>
<stop offset="0.96875" stop-color="#ADDDF9"/>
</linearGradient>
<linearGradient id="paint1_linear" x1="26.118" y1="9.83737" x2="27.8531" y2="17.9713" gradientUnits="userSpaceOnUse">
<stop offset="0.265243" stop-color="#F4F8FA"/>
<stop offset="0.899425" stop-color="#F4F8FA" stop-opacity="0"/>
</linearGradient>
<linearGradient id="paint2_linear" x1="10.0993" y1="13.9925" x2="28.6403" y2="26.7532" gradientUnits="userSpaceOnUse">
<stop offset="0.0589154" stop-color="#BAD7E7"/>
<stop offset="0.464316" stop-color="#DEEBF2"/>
<stop offset="0.6583" stop-color="#DEEBF2"/>
<stop offset="1" stop-color="#BDE1F6"/>
</linearGradient>
<linearGradient id="paint3_linear" x1="27.5264" y1="31.8085" x2="31.6924" y2="29.6375" gradientUnits="userSpaceOnUse">
<stop offset="0.325476" stop-color="#83BDF3"/>
<stop offset="0.786155" stop-color="#62B2EF"/>
</linearGradient>
<linearGradient id="paint4_linear" x1="16.6554" y1="26.5255" x2="22.6047" y2="23.7635" gradientUnits="userSpaceOnUse">
<stop offset="0.395833" stop-color="#6BB5F8"/>
<stop offset="1" stop-color="#2696EF"/>
</linearGradient>
<linearGradient id="paint5_linear" x1="9.31756" y1="35.057" x2="15.2668" y2="32.295" gradientUnits="userSpaceOnUse">
<stop offset="0.395833" stop-color="#6BB5F8"/>
<stop offset="1" stop-color="#2696EF"/>
</linearGradient>
<clipPath id="clip0">
<rect width="40" height="40" fill="white" transform="translate(0.425781 0.245361)"/>
</clipPath>
</defs>
</svg>
