<svg width="41" height="40" viewBox="0 0 41 40" fill="none" xmlns="http://www.w3.org/2000/svg">
<g clip-path="url(#clip0)">
<g filter="url(#filter0_dd)">
<path d="M8.70557 17C7.79411 17 6.93962 17.1693 6.14209 17.5078C5.34456 17.8464 4.64388 18.3034 4.04004 18.8789C3.4362 19.4544 2.96338 20.1428 2.62158 20.944C2.27979 21.7452 2.10319 22.5972 2.0918 23.5C2.0918 24.4028 2.2627 25.2435 2.60449 26.0221C2.94629 26.8008 3.41341 27.4892 4.00586 28.0873C4.59831 28.6853 5.29899 29.1537 6.10791 29.4922C6.91683 29.8307 7.76562 30 8.6543 30H28.3418C29.5495 30 30.6831 29.7743 31.7427 29.3229C32.8022 28.8715 33.7308 28.2565 34.5283 27.4779C35.3258 26.6992 35.9525 25.7795 36.4082 24.7188C36.8639 23.658 37.0918 22.5295 37.0918 21.3333C37.0918 20.1372 36.8639 19.0143 36.4082 17.9649C35.9525 16.9154 35.3315 15.9957 34.5454 15.2057C33.7593 14.4158 32.8307 13.7951 31.7598 13.3438C30.6888 12.8924 29.5495 12.6667 28.3418 12.6667C27.8177 12.6667 27.2879 12.7175 26.7524 12.819C26.2967 12.1194 25.7726 11.4931 25.1802 10.9401C24.5877 10.3872 23.9326 9.9132 23.2148 9.51824C22.4971 9.12327 21.7451 8.82987 20.959 8.63803C20.1729 8.44619 19.3525 8.34463 18.498 8.33334C17.2334 8.33334 16.0428 8.5534 14.9263 8.9935C13.8097 9.4336 12.8128 10.0373 11.9355 10.8047C11.0583 11.5721 10.3462 12.4918 9.79932 13.5638C9.25244 14.6359 8.88786 15.7813 8.70557 17Z" fill="url(#paint0_linear)"/>
</g>
<path d="M36.9719 20.583C36.9719 24.4945 32.8049 26.888 28.6792 26.888C24.5535 26.888 21.209 23.7171 21.209 19.8055C21.209 15.8939 24.5535 12.723 28.6792 12.723C32.8049 12.723 36.9719 16.6714 36.9719 20.583Z" fill="url(#paint1_linear)"/>
<path d="M26.2178 15.2016C24.5124 15.2016 22.9924 15.8002 21.8061 16.751C21.8061 16.751 21.769 16.751 21.769 16.7862C22.4734 15.3776 23.6968 14.2156 25.1797 13.5466C23.9192 12.1732 22.1027 11.3281 20.0265 11.3281C16.2821 11.3281 13.2792 14.2156 13.2792 17.7017C13.2792 18.2651 13.3533 18.8285 13.5016 19.3567C12.9826 19.1807 12.4265 19.075 11.8333 19.075C9.23818 19.075 7.125 21.0822 7.125 23.5119C7.125 25.9416 9.23818 27.9488 11.8333 27.9488C11.8704 27.9488 11.9075 27.9488 11.9075 27.9488H26.0695C26.1066 27.9488 26.1437 27.9488 26.1807 27.9488C29.9251 27.9488 32.9281 25.0613 32.9281 21.5752C32.9281 18.0891 29.9251 15.2016 26.2178 15.2016Z" fill="url(#paint2_linear)"/>
</g>
<defs>
<filter id="filter0_dd" x="0.0917969" y="6.33334" width="39" height="25.6667" filterUnits="userSpaceOnUse" color-interpolation-filters="sRGB">
<feFlood flood-opacity="0" result="BackgroundImageFix"/>
<feColorMatrix in="SourceAlpha" type="matrix" values="0 0 0 0 0 0 0 0 0 0 0 0 0 0 0 0 0 0 127 0" result="hardAlpha"/>
<feOffset/>
<feGaussianBlur stdDeviation="1"/>
<feColorMatrix type="matrix" values="0 0 0 0 0 0 0 0 0 0 0 0 0 0 0 0 0 0 0.2 0"/>
<feBlend mode="normal" in2="BackgroundImageFix" result="effect1_dropShadow"/>
<feColorMatrix in="SourceAlpha" type="matrix" values="0 0 0 0 0 0 0 0 0 0 0 0 0 0 0 0 0 0 127 0" result="hardAlpha"/>
<feOffset dx="1" dy="1"/>
<feGaussianBlur stdDeviation="0.5"/>
<feColorMatrix type="matrix" values="0 0 0 0 0 0 0 0 0 0 0 0 0 0 0 0 0 0 0.15 0"/>
<feBlend mode="normal" in2="effect1_dropShadow" result="effect2_dropShadow"/>
<feBlend mode="normal" in="SourceGraphic" in2="effect2_dropShadow" result="shape"/>
</filter>
<linearGradient id="paint0_linear" x1="6.94746" y1="11.8107" x2="36.1343" y2="30.2511" gradientUnits="userSpaceOnUse">
<stop stop-color="white"/>
<stop offset="0.551728" stop-color="#D9E7EF"/>
<stop offset="0.96875" stop-color="#ADDDF9"/>
</linearGradient>
<linearGradient id="paint1_linear" x1="26.118" y1="12.9253" x2="27.8531" y2="21.0593" gradientUnits="userSpaceOnUse">
<stop offset="0.265243" stop-color="#F4F8FA"/>
<stop offset="0.899425" stop-color="#F4F8FA" stop-opacity="0"/>
</linearGradient>
<linearGradient id="paint2_linear" x1="10.0993" y1="17.0806" x2="28.6403" y2="29.8412" gradientUnits="userSpaceOnUse">
<stop offset="0.0589154" stop-color="#BAD7E7"/>
<stop offset="0.464316" stop-color="#DEEBF2"/>
<stop offset="0.6583" stop-color="#DEEBF2"/>
<stop offset="1" stop-color="#BDE1F6"/>
</linearGradient>
<clipPath id="clip0">
<rect width="40" height="40" fill="white" transform="translate(0.425781)"/>
</clipPath>
</defs>
</svg>
