<svg width="41" height="40" viewBox="0 0 41 40" fill="none" xmlns="http://www.w3.org/2000/svg">
<g clip-path="url(#clip0)">
<g style="mix-blend-mode:multiply">
<path d="M11.1165 22.4797C10.1775 22.4797 9.29719 22.6607 8.47554 23.0227C7.65389 23.3846 6.93201 23.8732 6.30991 24.4886C5.68781 25.1039 5.20069 25.8398 4.84855 26.6964C4.49642 27.553 4.31448 28.464 4.30275 29.4291C4.30275 30.3943 4.47881 31.2932 4.83095 32.1257C5.18308 32.9581 5.66433 33.6941 6.2747 34.3335C6.88506 34.973 7.60694 35.4737 8.44033 35.8356C9.27371 36.1976 10.1482 36.3786 11.0637 36.3786H31.3467C32.5909 36.3786 33.7588 36.1373 34.8504 35.6547C35.942 35.1721 36.8987 34.5145 37.7203 33.682C38.542 32.8496 39.1875 31.8663 39.6571 30.7322C40.1266 29.5981 40.3613 28.3916 40.3613 27.1127C40.3613 25.8338 40.1266 24.6333 39.6571 23.5113C39.1875 22.3893 38.5478 21.406 37.7379 20.5614C36.928 19.7169 35.9714 19.0533 34.868 18.5707C33.7647 18.0881 32.5909 17.8468 31.3467 17.8468C30.8067 17.8468 30.2609 17.9011 29.7093 18.0097C29.2397 17.2617 28.6998 16.5921 28.0894 16.0009C27.4791 15.4097 26.8041 14.903 26.0647 14.4807C25.3252 14.0584 24.5505 13.7447 23.7406 13.5396C22.9307 13.3345 22.0855 13.2259 21.2052 13.2139C19.9023 13.2139 18.6757 13.4491 17.5254 13.9197C16.3751 14.3902 15.348 15.0357 14.4442 15.8561C13.5404 16.6765 12.8068 17.6598 12.2434 18.806C11.68 19.9521 11.3044 21.1767 11.1165 22.4797Z" fill="black" fill-opacity="0.1"/>
</g>
<g filter="url(#filter0_dd)">
<path fill-rule="evenodd" clip-rule="evenodd" d="M1.9797 16.9991C2.28326 17.0755 2.59267 17.1399 2.90746 17.1916C8.83244 18.1642 14.422 14.2708 15.392 8.49532C15.7266 6.50358 15.468 4.54813 14.7427 2.80091C20.1526 4.1632 23.7051 9.35829 22.7866 14.8269C21.8165 20.6023 16.227 24.4958 10.302 23.5231C6.42032 22.8859 3.35767 20.3183 1.9797 16.9991Z" fill="url(#paint0_linear)"/>
</g>
<mask id="mask0" mask-type="alpha" maskUnits="userSpaceOnUse" x="1" y="2" width="22" height="22">
<path fill-rule="evenodd" clip-rule="evenodd" d="M1.98165 16.9996C2.28521 17.076 2.59462 17.1404 2.90942 17.1921C8.83439 18.1647 14.4239 14.2712 15.394 8.49581C15.7285 6.50407 15.47 4.54862 14.7446 2.8014C20.1546 4.16369 23.707 9.35878 22.7885 14.8274C21.8184 20.6028 16.2289 24.4962 10.3039 23.5236C6.42227 22.8864 3.35962 20.3188 1.98165 16.9996Z" fill="url(#paint1_linear)"/>
</mask>
<g mask="url(#mask0)">
<path d="M10.7465 20.5111C9.8279 20.5111 8.96671 20.6747 8.16292 21.0019C7.35914 21.3291 6.65295 21.7709 6.04438 22.3271C5.43579 22.8834 4.95927 23.5487 4.61479 24.323C4.27031 25.0974 4.09233 25.9209 4.08085 26.7934C4.08085 27.666 4.25309 28.4785 4.59756 29.2311C4.94204 29.9836 5.41283 30.649 6.00993 31.227C6.60703 31.8051 7.31321 32.2577 8.12847 32.5849C8.94374 32.9121 9.79919 33.0757 10.6948 33.0757H30.5368C31.754 33.0757 32.8965 32.8576 33.9644 32.4213C35.0323 31.985 35.9681 31.3906 36.7719 30.638C37.5757 29.8855 38.2072 28.9966 38.6665 27.9713C39.1258 26.9461 39.3555 25.8554 39.3555 24.6993C39.3555 23.5432 39.1258 22.458 38.6665 21.4437C38.2072 20.4293 37.5814 19.5404 36.7891 18.777C35.9968 18.0135 35.061 17.4136 33.9816 16.9774C32.9022 16.5411 31.754 16.323 30.5368 16.323C30.0086 16.323 29.4747 16.372 28.935 16.4702C28.4757 15.794 27.9475 15.1887 27.3504 14.6542C26.7533 14.1198 26.093 13.6617 25.3696 13.28C24.6462 12.8982 23.8884 12.6147 23.0961 12.4292C22.3038 12.2438 21.477 12.1457 20.6158 12.1348C19.3413 12.1348 18.1413 12.3474 17.016 12.7728C15.8907 13.1982 14.886 13.7817 14.0018 14.5233C13.1177 15.265 12.4 16.1539 11.8488 17.19C11.2977 18.2262 10.9302 19.3332 10.7465 20.5111Z" fill="#1D1300" fill-opacity="0.1"/>
</g>
<path d="M11.7253 21.8805C10.8572 21.8805 10.0434 22.0498 9.28386 22.3883C8.52431 22.7269 7.85699 23.1839 7.2819 23.7594C6.70681 24.335 6.25651 25.0233 5.93099 25.8245C5.60547 26.6258 5.43728 27.4778 5.42643 28.3805C5.42643 29.2833 5.58919 30.124 5.91471 30.9027C6.24023 31.6813 6.68511 32.3697 7.24935 32.9678C7.81359 33.5659 8.4809 34.0342 9.2513 34.3727C10.0217 34.7113 10.8301 34.8805 11.6764 34.8805H30.4264C31.5766 34.8805 32.6562 34.6548 33.6654 34.2034C34.6745 33.7521 35.5588 33.137 36.3184 32.3584C37.0779 31.5798 37.6747 30.66 38.1087 29.5993C38.5428 28.5385 38.7598 27.41 38.7598 26.2139C38.7598 25.0177 38.5428 23.8949 38.1087 22.8454C37.6747 21.7959 37.0833 20.8762 36.3346 20.0863C35.5859 19.2963 34.7016 18.6757 33.6816 18.2243C32.6617 17.7729 31.5766 17.5472 30.4264 17.5472C29.9273 17.5472 29.4227 17.598 28.9128 17.6995C28.4787 16.9999 27.9796 16.3736 27.4154 15.8206C26.8511 15.2677 26.2272 14.7937 25.5436 14.3988C24.86 14.0038 24.1439 13.7104 23.3952 13.5186C22.6465 13.3267 21.8652 13.2252 21.0514 13.2139C19.847 13.2139 18.7131 13.4339 17.6497 13.874C16.5864 14.3141 15.6369 14.9179 14.8014 15.6852C13.9659 16.4526 13.2878 17.3723 12.7669 18.4443C12.2461 19.5164 11.8989 20.6618 11.7253 21.8805Z" fill="url(#paint2_linear)"/>
<path d="M38.6451 25.4635C38.6451 29.3751 34.6766 31.7685 30.7473 31.7685C26.8181 31.7685 23.6328 28.5976 23.6328 24.686C23.6328 20.7745 26.8181 17.6035 30.7473 17.6035C34.6766 17.6035 38.6451 21.5519 38.6451 25.4635Z" fill="url(#paint3_linear)"/>
<path d="M28.4024 20.082C26.7782 20.082 25.3306 20.6806 24.2007 21.6313C24.2007 21.6313 24.1654 21.6313 24.1654 21.6665C24.8363 20.258 26.0014 19.096 27.4137 18.4269C26.2133 17.0536 24.4832 16.2085 22.5059 16.2085C18.9398 16.2085 16.0799 19.096 16.0799 22.5821C16.0799 23.1455 16.1505 23.7089 16.2917 24.2371C15.7974 24.061 15.2678 23.9554 14.7029 23.9554C12.2313 23.9554 10.2188 25.9626 10.2188 28.3923C10.2188 30.822 12.2313 32.8291 14.7029 32.8291C14.7382 32.8291 14.7735 32.8291 14.7735 32.8291H28.2611C28.2964 32.8291 28.3318 32.8291 28.3671 32.8291C31.9332 32.8291 34.7931 29.9417 34.7931 26.4555C34.7931 22.9694 31.9332 20.082 28.4024 20.082Z" fill="url(#paint4_linear)"/>
</g>
<defs>
<filter id="filter0_dd" x="-0.0195312" y="0.800781" width="24.9514" height="25.8711" filterUnits="userSpaceOnUse" color-interpolation-filters="sRGB">
<feFlood flood-opacity="0" result="BackgroundImageFix"/>
<feColorMatrix in="SourceAlpha" type="matrix" values="0 0 0 0 0 0 0 0 0 0 0 0 0 0 0 0 0 0 127 0" result="hardAlpha"/>
<feOffset/>
<feGaussianBlur stdDeviation="1"/>
<feColorMatrix type="matrix" values="0 0 0 0 0.996078 0 0 0 0 0.878431 0 0 0 0 0.411765 0 0 0 1 0"/>
<feBlend mode="normal" in2="BackgroundImageFix" result="effect1_dropShadow"/>
<feColorMatrix in="SourceAlpha" type="matrix" values="0 0 0 0 0 0 0 0 0 0 0 0 0 0 0 0 0 0 127 0" result="hardAlpha"/>
<feOffset dy="1"/>
<feGaussianBlur stdDeviation="1"/>
<feColorMatrix type="matrix" values="0 0 0 0 0 0 0 0 0 0 0 0 0 0 0 0 0 0 0.25 0"/>
<feBlend mode="normal" in2="effect1_dropShadow" result="effect2_dropShadow"/>
<feBlend mode="normal" in="SourceGraphic" in2="effect2_dropShadow" result="shape"/>
</filter>
<linearGradient id="paint0_linear" x1="17.4789" y1="24.4649" x2="4.39232" y2="7.49472" gradientUnits="userSpaceOnUse">
<stop offset="0.230136" stop-color="#FF9900"/>
<stop offset="0.590632" stop-color="#FBE000"/>
</linearGradient>
<linearGradient id="paint1_linear" x1="17.4809" y1="24.4654" x2="4.39427" y2="7.49521" gradientUnits="userSpaceOnUse">
<stop offset="0.230136" stop-color="#FF9900"/>
<stop offset="0.590632" stop-color="#FBE000"/>
</linearGradient>
<linearGradient id="paint2_linear" x1="10.0509" y1="16.6912" x2="38.6052" y2="33.8729" gradientUnits="userSpaceOnUse">
<stop stop-color="white"/>
<stop offset="0.551728" stop-color="#D9E7EF"/>
<stop offset="0.96875" stop-color="#ADDDF9"/>
</linearGradient>
<linearGradient id="paint3_linear" x1="28.3081" y1="17.8059" x2="30.1219" y2="25.9037" gradientUnits="userSpaceOnUse">
<stop offset="0.265243" stop-color="#F4F8FA"/>
<stop offset="0.899425" stop-color="#F4F8FA" stop-opacity="0"/>
</linearGradient>
<linearGradient id="paint4_linear" x1="13.0514" y1="21.9609" x2="31.2535" y2="33.8917" gradientUnits="userSpaceOnUse">
<stop offset="0.0589154" stop-color="#BAD7E7"/>
<stop offset="0.464316" stop-color="#DEEBF2"/>
<stop offset="0.6583" stop-color="#DEEBF2"/>
<stop offset="1" stop-color="#BDE1F6"/>
</linearGradient>
<clipPath id="clip0">
<rect width="40" height="40" fill="white" transform="translate(0.425781)"/>
</clipPath>
</defs>
</svg>
