<svg width="41" height="40" viewBox="0 0 41 40" fill="none" xmlns="http://www.w3.org/2000/svg">
<g clip-path="url(#clip0)">
<g filter="url(#filter0_dd)">
<path d="M16.2933 11.9985C15.6255 11.9985 14.9995 12.1225 14.4152 12.3704C13.8309 12.6184 13.3176 12.9532 12.8752 13.3747C12.4328 13.7963 12.0864 14.3005 11.836 14.8874C11.5856 15.4743 11.4562 16.0984 11.4478 16.7596C11.4478 17.4209 11.573 18.0367 11.8234 18.6071C12.0739 19.1774 12.4161 19.6816 12.8501 20.1197C13.2842 20.5578 13.7975 20.9008 14.3902 21.1488C14.9828 21.3968 15.6046 21.5208 16.2557 21.5208H30.6793C31.5641 21.5208 32.3947 21.3555 33.1709 21.0248C33.9472 20.6942 34.6275 20.2437 35.2118 19.6734C35.7961 19.103 36.2551 18.4293 36.589 17.6523C36.9229 16.8754 37.0898 16.0488 37.0898 15.1726C37.0898 14.2964 36.9229 13.4739 36.589 12.7052C36.2551 11.9365 35.8002 11.2628 35.2243 10.6842C34.6483 10.1056 33.9681 9.65096 33.1834 9.32033C32.3988 8.98969 31.5641 8.82437 30.6793 8.82437C30.2954 8.82437 29.9072 8.86157 29.5149 8.93596C29.1811 8.42348 28.7971 7.96472 28.363 7.55969C27.929 7.15466 27.449 6.80749 26.9232 6.51819C26.3973 6.22888 25.8464 6.01397 25.2705 5.87345C24.6945 5.73293 24.0936 5.65853 23.4675 5.65027C22.541 5.65027 21.6687 5.81145 20.8507 6.13382C20.0327 6.45619 19.3024 6.89842 18.6596 7.4605C18.0169 8.02258 17.4952 8.69625 17.0946 9.48151C16.6939 10.2668 16.4268 11.1058 16.2933 11.9985Z" fill="url(#paint0_linear)" fill-opacity="0.65"/>
</g>
<mask id="mask0" mask-type="alpha" maskUnits="userSpaceOnUse" x="11" y="5" width="27" height="17">
<path d="M16.2933 11.9985C15.6255 11.9985 14.9995 12.1225 14.4152 12.3704C13.8309 12.6184 13.3176 12.9532 12.8752 13.3747C12.4328 13.7963 12.0864 14.3005 11.836 14.8874C11.5856 15.4743 11.4562 16.0984 11.4478 16.7596C11.4478 17.4209 11.573 18.0367 11.8234 18.6071C12.0739 19.1774 12.4161 19.6816 12.8501 20.1197C13.2842 20.5578 13.7975 20.9008 14.3902 21.1488C14.9828 21.3968 15.6046 21.5208 16.2557 21.5208H30.6793C31.5641 21.5208 32.3947 21.3555 33.1709 21.0248C33.9472 20.6942 34.6275 20.2437 35.2118 19.6734C35.7961 19.103 36.2551 18.4293 36.589 17.6523C36.9229 16.8754 37.0898 16.0488 37.0898 15.1726C37.0898 14.2964 36.9229 13.4739 36.589 12.7052C36.2551 11.9365 35.8002 11.2628 35.2243 10.6842C34.6483 10.1056 33.9681 9.65096 33.1834 9.32033C32.3988 8.98969 31.5641 8.82437 30.6793 8.82437C30.2954 8.82437 29.9072 8.86157 29.5149 8.93596C29.1811 8.42348 28.7971 7.96472 28.363 7.55969C27.929 7.15466 27.449 6.80749 26.9232 6.51819C26.3973 6.22888 25.8464 6.01397 25.2705 5.87345C24.6945 5.73293 24.0936 5.65853 23.4675 5.65027C22.541 5.65027 21.6687 5.81145 20.8507 6.13382C20.0327 6.45619 19.3024 6.89842 18.6596 7.4605C18.0169 8.02258 17.4952 8.69625 17.0946 9.48151C16.6939 10.2668 16.4268 11.1058 16.2933 11.9985Z" fill="url(#paint1_linear)" fill-opacity="0.65"/>
</mask>
<g mask="url(#mask0)">
<path d="M10.0055 14.6668C9.13971 14.6668 8.32799 14.8255 7.57039 15.143C6.81279 15.4605 6.14718 15.8891 5.57357 16.4288C4.99996 16.9685 4.55081 17.614 4.22612 18.3653C3.90144 19.1167 3.73368 19.9157 3.72286 20.7622C3.72286 21.6088 3.8852 22.3972 4.20989 23.1274C4.53458 23.8576 4.97831 24.5031 5.5411 25.064C6.10389 25.6248 6.7695 26.064 7.53792 26.3815C8.30634 26.6989 9.11265 26.8577 9.95683 26.8577H28.6587C29.806 26.8577 30.8828 26.646 31.8894 26.2227C32.8959 25.7994 33.778 25.2227 34.5356 24.4925C35.2932 23.7623 35.8884 22.8999 36.3213 21.9051C36.7542 20.9104 36.9707 19.8522 36.9707 18.7304C36.9707 17.6087 36.7542 16.5558 36.3213 15.5716C35.8884 14.5874 35.2986 13.725 34.5518 12.9842C33.805 12.2434 32.923 11.6614 31.9056 11.2381C30.8883 10.8148 29.806 10.6032 28.6587 10.6032C28.1609 10.6032 27.6576 10.6508 27.149 10.746C26.716 10.0899 26.2182 9.50261 25.6554 8.98408C25.0926 8.46554 24.4703 8.02108 23.7885 7.6507C23.1066 7.28032 22.3923 7.00517 21.6455 6.82527C20.8987 6.64537 20.1195 6.55013 19.3078 6.53955C18.1064 6.53955 16.9755 6.74591 15.9148 7.15862C14.8542 7.57133 13.9072 8.13749 13.0738 8.85709C12.2405 9.57669 11.564 10.4391 11.0445 11.4445C10.525 12.4498 10.1787 13.5239 10.0055 14.6668Z" fill="black" fill-opacity="0.1"/>
</g>
<g filter="url(#filter1_dd)">
<path d="M8.39128 16.9613C7.52322 16.9613 6.70942 17.1306 5.94987 17.4692C5.19032 17.8077 4.523 18.2647 3.94792 18.8403C3.37283 19.4158 2.92253 20.1041 2.597 20.9054C2.27148 21.7066 2.1033 22.5586 2.09245 23.4613C2.09245 24.3641 2.25521 25.2048 2.58073 25.9835C2.90625 26.7621 3.35113 27.4505 3.91537 28.0486C4.4796 28.6467 5.14692 29.115 5.91732 29.4535C6.68772 29.7921 7.49609 29.9613 8.34245 29.9613H27.0924C28.2426 29.9613 29.3223 29.7357 30.3314 29.2843C31.3405 28.8329 32.2248 28.2179 32.9844 27.4392C33.7439 26.6606 34.3407 25.7409 34.7747 24.6801C35.2088 23.6193 35.4258 22.4909 35.4258 21.2947C35.4258 20.0985 35.2088 18.9757 34.7747 17.9262C34.3407 16.8767 33.7493 15.957 33.0007 15.1671C32.252 14.3771 31.3676 13.7565 30.3477 13.3051C29.3277 12.8537 28.2426 12.628 27.0924 12.628C26.5933 12.628 26.0888 12.6788 25.5788 12.7804C25.1447 12.0807 24.6456 11.4544 24.0814 10.9014C23.5171 10.3485 22.8932 9.87454 22.2096 9.47957C21.526 9.08461 20.8099 8.79121 20.0612 8.59937C19.3125 8.40752 18.5312 8.30596 17.7174 8.29468C16.513 8.29468 15.3791 8.51473 14.3158 8.95483C13.2524 9.39494 12.303 9.99867 11.4674 10.766C10.6319 11.5334 9.95378 12.4531 9.43294 13.5251C8.91211 14.5972 8.56489 15.7426 8.39128 16.9613Z" fill="url(#paint2_linear)"/>
</g>
<path d="M35.3111 20.5443C35.3111 24.4559 31.3426 26.8493 27.4133 26.8493C23.4841 26.8493 20.2988 23.6784 20.2988 19.7668C20.2988 15.8553 23.4841 12.6843 27.4133 12.6843C31.3426 12.6843 35.3111 16.6328 35.3111 20.5443Z" fill="url(#paint3_linear)"/>
<path d="M25.0664 15.1629C23.4423 15.1629 21.9946 15.7615 20.8648 16.7123C20.8648 16.7123 20.8295 16.7123 20.8295 16.7475C21.5003 15.339 22.6655 14.1769 24.0778 13.5079C22.8773 12.1345 21.1472 11.2894 19.17 11.2894C15.6039 11.2894 12.7439 14.1769 12.7439 17.663C12.7439 18.2264 12.8146 18.7898 12.9558 19.318C12.4615 19.142 11.9319 19.0363 11.3669 19.0363C8.89537 19.0363 6.88281 21.0435 6.88281 23.4732C6.88281 25.9029 8.89537 27.9101 11.3669 27.9101C11.4022 27.9101 11.4375 27.9101 11.4375 27.9101H24.9252C24.9605 27.9101 24.9958 27.9101 25.0311 27.9101C28.5972 27.9101 31.4572 25.0226 31.4572 21.5365C31.4572 18.0504 28.5972 15.1629 25.0664 15.1629Z" fill="url(#paint4_linear)"/>
<path d="M25.1447 23.5834C25.1447 23.5834 19.982 30.7242 15.8735 35.364C15.8623 35.3767 13.5416 35.364 13.5416 35.364L16.7412 25.966H12.6289L15.1102 18.818L21.5311 18.818L19.9596 23.5834H25.1447Z" fill="#FFB800"/>
<path d="M27.5847 23.585L17.0319 35.364H15.7637L20.2957 25.9684H16.2067L18.6739 18.818L23.9916 18.818L22.429 23.585H27.5847Z" fill="black" fill-opacity="0.1"/>
<g filter="url(#filter2_d)">
<path d="M26.3955 23.585L15.8428 35.364L19.1065 25.9684H15.0176L17.4848 18.818L22.8025 18.818L21.2399 23.585H26.3955Z" fill="url(#paint5_linear)"/>
</g>
</g>
<defs>
<filter id="filter0_dd" x="9.44727" y="3.65027" width="29.642" height="19.8705" filterUnits="userSpaceOnUse" color-interpolation-filters="sRGB">
<feFlood flood-opacity="0" result="BackgroundImageFix"/>
<feColorMatrix in="SourceAlpha" type="matrix" values="0 0 0 0 0 0 0 0 0 0 0 0 0 0 0 0 0 0 127 0" result="hardAlpha"/>
<feOffset/>
<feGaussianBlur stdDeviation="1"/>
<feColorMatrix type="matrix" values="0 0 0 0 0 0 0 0 0 0 0 0 0 0 0 0 0 0 0.2 0"/>
<feBlend mode="normal" in2="BackgroundImageFix" result="effect1_dropShadow"/>
<feColorMatrix in="SourceAlpha" type="matrix" values="0 0 0 0 0 0 0 0 0 0 0 0 0 0 0 0 0 0 127 0" result="hardAlpha"/>
<feOffset dx="1" dy="1"/>
<feGaussianBlur stdDeviation="0.5"/>
<feColorMatrix type="matrix" values="0 0 0 0 0 0 0 0 0 0 0 0 0 0 0 0 0 0 0.15 0"/>
<feBlend mode="normal" in2="effect1_dropShadow" result="effect2_dropShadow"/>
<feBlend mode="normal" in="SourceGraphic" in2="effect2_dropShadow" result="shape"/>
</filter>
<filter id="filter1_dd" x="0.0917969" y="6.29468" width="37.3333" height="25.6667" filterUnits="userSpaceOnUse" color-interpolation-filters="sRGB">
<feFlood flood-opacity="0" result="BackgroundImageFix"/>
<feColorMatrix in="SourceAlpha" type="matrix" values="0 0 0 0 0 0 0 0 0 0 0 0 0 0 0 0 0 0 127 0" result="hardAlpha"/>
<feOffset/>
<feGaussianBlur stdDeviation="1"/>
<feColorMatrix type="matrix" values="0 0 0 0 0 0 0 0 0 0 0 0 0 0 0 0 0 0 0.2 0"/>
<feBlend mode="normal" in2="BackgroundImageFix" result="effect1_dropShadow"/>
<feColorMatrix in="SourceAlpha" type="matrix" values="0 0 0 0 0 0 0 0 0 0 0 0 0 0 0 0 0 0 127 0" result="hardAlpha"/>
<feOffset dx="1" dy="1"/>
<feGaussianBlur stdDeviation="0.5"/>
<feColorMatrix type="matrix" values="0 0 0 0 0 0 0 0 0 0 0 0 0 0 0 0 0 0 0.15 0"/>
<feBlend mode="normal" in2="effect1_dropShadow" result="effect2_dropShadow"/>
<feBlend mode="normal" in="SourceGraphic" in2="effect2_dropShadow" result="shape"/>
</filter>
<filter id="filter2_d" x="13.0176" y="18.818" width="15.378" height="20.546" filterUnits="userSpaceOnUse" color-interpolation-filters="sRGB">
<feFlood flood-opacity="0" result="BackgroundImageFix"/>
<feColorMatrix in="SourceAlpha" type="matrix" values="0 0 0 0 0 0 0 0 0 0 0 0 0 0 0 0 0 0 127 0" result="hardAlpha"/>
<feOffset dy="2"/>
<feGaussianBlur stdDeviation="1"/>
<feColorMatrix type="matrix" values="0 0 0 0 0 0 0 0 0 0 0 0 0 0 0 0 0 0 0.25 0"/>
<feBlend mode="normal" in2="BackgroundImageFix" result="effect1_dropShadow"/>
<feBlend mode="normal" in="SourceGraphic" in2="effect1_dropShadow" result="shape"/>
</filter>
<linearGradient id="paint0_linear" x1="11.4478" y1="5.65027" x2="36.9486" y2="21.7446" gradientUnits="userSpaceOnUse">
<stop offset="0.21875" stop-color="white"/>
<stop offset="0.645833" stop-color="#F7FCFF"/>
</linearGradient>
<linearGradient id="paint1_linear" x1="11.4478" y1="5.65027" x2="36.9486" y2="21.7446" gradientUnits="userSpaceOnUse">
<stop offset="0.21875" stop-color="white"/>
<stop offset="0.645833" stop-color="#F7FCFF"/>
</linearGradient>
<linearGradient id="paint2_linear" x1="6.71689" y1="11.772" x2="35.2713" y2="28.9537" gradientUnits="userSpaceOnUse">
<stop stop-color="white"/>
<stop offset="0.551728" stop-color="#D9E7EF"/>
<stop offset="0.96875" stop-color="#ADDDF9"/>
</linearGradient>
<linearGradient id="paint3_linear" x1="24.9741" y1="12.8867" x2="26.7879" y2="20.9845" gradientUnits="userSpaceOnUse">
<stop offset="0.265243" stop-color="#F4F8FA"/>
<stop offset="0.899425" stop-color="#F4F8FA" stop-opacity="0"/>
</linearGradient>
<linearGradient id="paint4_linear" x1="9.71547" y1="17.0419" x2="27.9175" y2="28.9727" gradientUnits="userSpaceOnUse">
<stop offset="0.0589154" stop-color="#BAD7E7"/>
<stop offset="0.464316" stop-color="#DEEBF2"/>
<stop offset="0.6583" stop-color="#DEEBF2"/>
<stop offset="1" stop-color="#BDE1F6"/>
</linearGradient>
<linearGradient id="paint5_linear" x1="15.4177" y1="32.2512" x2="20.4429" y2="14.5181" gradientUnits="userSpaceOnUse">
<stop offset="0.353019" stop-color="#FFE501"/>
<stop offset="0.866137" stop-color="#FF9900"/>
</linearGradient>
<clipPath id="clip0">
<rect width="40" height="40" fill="white" transform="translate(0.425781)"/>
</clipPath>
</defs>
</svg>
